<svg width="15" height="15" viewBox="0 0 15 15" fill="none" xmlns="http://www.w3.org/2000/svg">
<path d="M6 10.5H9C9.2125 10.5 9.39075 10.428 9.53475 10.284C9.67875 10.14 9.7505 9.962 9.75 9.75V8.25H8.25V9H6.75V6H8.25V6.75H9.75V5.25C9.75 5.0375 9.678 4.85925 9.534 4.71525C9.39 4.57125 9.212 4.4995 9 4.5H6C5.7875 4.5 5.60925 4.572 5.46525 4.716C5.32125 4.86 5.2495 5.038 5.25 5.25V9.75C5.25 9.9625 5.322 10.1407 5.466 10.2847C5.61 10.4287 5.788 10.5005 6 10.5ZM7.5 15C6.4625 15 5.4875 14.803 4.575 14.409C3.6625 14.015 2.86875 13.4807 2.19375 12.8062C1.51875 12.1312 0.9845 11.3375 0.591 10.425C0.1975 9.5125 0.0005 8.5375 0 7.5C0 6.4625 0.197 5.4875 0.591 4.575C0.985 3.6625 1.51925 2.86875 2.19375 2.19375C2.86875 1.51875 3.6625 0.9845 4.575 0.591C5.4875 0.1975 6.4625 0.0005 7.5 0C8.5375 0 9.5125 0.197 10.425 0.591C11.3375 0.985 12.1312 1.51925 12.8062 2.19375C13.4812 2.86875 14.0157 3.6625 14.4097 4.575C14.8037 5.4875 15.0005 6.4625 15 7.5C15 8.5375 14.803 9.5125 14.409 10.425C14.015 11.3375 13.4807 12.1312 12.8062 12.8062C12.1312 13.4812 11.3375 14.0157 10.425 14.4097C9.5125 14.8037 8.5375 15.0005 7.5 15ZM7.5 13.5C9.175 13.5 10.5937 12.9187 11.7562 11.7562C12.9187 10.5937 13.5 9.175 13.5 7.5C13.5 5.825 12.9187 4.40625 11.7562 3.24375C10.5937 2.08125 9.175 1.5 7.5 1.5C5.825 1.5 4.40625 2.08125 3.24375 3.24375C2.08125 4.40625 1.5 5.825 1.5 7.5C1.5 9.175 2.08125 10.5937 3.24375 11.7562C4.40625 12.9187 5.825 13.5 7.5 13.5Z" fill="#FBFBFB"/>
</svg>
