<svg width="12" height="20" viewBox="0 0 12 20" fill="none" xmlns="http://www.w3.org/2000/svg">
<path id="Vector" fill-rule="evenodd" clip-rule="evenodd" d="M5 17V20H7V17H8C9.06087 17 10.0783 16.5786 10.8284 15.8284C11.5786 15.0783 12 14.0609 12 13C12 11.9391 11.5786 10.9217 10.8284 10.1716C10.0783 9.42143 9.06087 9 8 9H7V5H9V7H11V3H7V0H5V3H4C2.93913 3 1.92172 3.42143 1.17157 4.17157C0.421427 4.92172 0 5.93913 0 7C0 8.06087 0.421427 9.07828 1.17157 9.82843C1.92172 10.5786 2.93913 11 4 11H5V15H3V13H1V17H5ZM7 15H8C8.53043 15 9.03914 14.7893 9.41421 14.4142C9.78929 14.0391 10 13.5304 10 13C10 12.4696 9.78929 11.9609 9.41421 11.5858C9.03914 11.2107 8.53043 11 8 11H7V15ZM5 9V5H4C3.46957 5 2.96086 5.21071 2.58579 5.58579C2.21071 5.96086 2 6.46957 2 7C2 7.53043 2.21071 8.03914 2.58579 8.41421C2.96086 8.78929 3.46957 9 4 9H5Z" fill="#FBFBFB"/>
</svg>
