<svg width="7" height="8" viewBox="0 0 7 8" fill="none" xmlns="http://www.w3.org/2000/svg">
<path id="Vector" d="M3.81505 1.64773L3.81505 4.28409L3.23505 4.28409L3.23505 1.64773L2.36505 1.64773L3.52505 -1.26763e-07L4.68505 1.64773L3.81505 1.64773ZM1.78505 1.31818L1.78505 2.21059C1.48973 2.59111 1.29731 3.06039 1.23088 3.5621C1.16444 4.06381 1.22682 4.57665 1.41051 5.03908C1.59421 5.50151 1.89143 5.89388 2.2665 6.16911C2.64158 6.44435 3.07857 6.59075 3.52505 6.59075C3.97153 6.59075 4.40852 6.44435 4.78359 6.16911C5.15867 5.89388 5.45589 5.50151 5.63958 5.03908C5.82328 4.57665 5.88566 4.06381 5.81922 3.5621C5.75279 3.06039 5.56037 2.59111 5.26505 2.21059L5.26505 1.31818C5.62547 1.62488 5.91798 2.02286 6.11935 2.48051C6.32071 2.93816 6.42539 3.44287 6.42505 3.95455C6.42505 5.77463 5.12672 7.25 3.52505 7.25C1.92338 7.25 0.62505 5.77463 0.62505 3.95455C0.624712 3.44287 0.729384 2.93816 0.930751 2.48051C1.13212 2.02286 1.42463 1.62488 1.78505 1.31818Z" fill="#FBFBFB"/>
</svg>
