<svg width="21" height="20" viewBox="0 0 21 20" fill="none" xmlns="http://www.w3.org/2000/svg">
<path id="Vector" d="M9 20C7.75 20 6.579 19.7667 5.487 19.3C4.395 18.8333 3.441 18.1917 2.625 17.375C1.80833 16.5583 1.16667 15.604 0.7 14.512C0.233333 13.42 0 12.2493 0 11C0 9.75 0.233333 8.579 0.7 7.487C1.16667 6.395 1.80833 5.441 2.625 4.625C3.44167 3.80833 4.396 3.16667 5.488 2.7C6.58 2.23333 7.75067 2 9 2C9.35 2 9.68733 2.021 10.012 2.063C10.3367 2.105 10.666 2.16733 11 2.25V4.3C10.6667 4.2 10.3373 4.125 10.012 4.075C9.68667 4.025 9.34933 4 9 4C7.03333 4 5.375 4.675 4.025 6.025C2.675 7.375 2 9.03333 2 11C2 12.9667 2.675 14.625 4.025 15.975C5.375 17.325 7.03333 18 9 18C10.9667 18 12.625 17.325 13.975 15.975C15.325 14.625 16 12.9667 16 11C16 10.8167 15.9917 10.65 15.975 10.5C15.9583 10.35 15.9333 10.1833 15.9 10H17.95C17.9833 10.1833 18 10.35 18 10.5V11C18 12.25 17.7667 13.421 17.3 14.513C16.8333 15.605 16.1917 16.559 15.375 17.375C14.5583 18.1917 13.604 18.8333 12.512 19.3C11.42 19.7667 10.2493 20 9 20ZM11.8 15.2L8 11.4V6H10V10.6L13.2 13.8L11.8 15.2ZM16 8V5H13V3H16V0H18V3H21V5H18V8H16Z" fill="#FBFBFB"/>
</svg>
