<svg width="91" height="91" viewBox="0 0 91 91" fill="none" xmlns="http://www.w3.org/2000/svg">
<path d="M85.3595 45.4999L90.3886 36.8081C90.993 35.7624 91.1574 34.5194 90.8456 33.3524C90.5338 32.1855 89.7714 31.1902 88.7259 30.5853L80.0252 25.5561V15.534C80.0252 14.3259 79.5453 13.1671 78.691 12.3128C77.8367 11.4585 76.678 10.9786 75.4699 10.9786H65.4527L60.4282 2.28217C59.8214 1.23858 58.828 0.475946 57.6631 0.159316C57.0853 0.0026804 56.4822 -0.0377089 55.8887 0.0404894C55.2952 0.118688 54.7231 0.313919 54.2056 0.614864L45.5049 5.64411L36.8043 0.610308C35.758 0.0062418 34.5146 -0.157457 33.3477 0.155221C32.1807 0.467898 31.1858 1.23134 30.5817 2.27761L25.5526 10.9786H15.5354C14.3273 10.9786 13.1686 11.4585 12.3143 12.3128C11.4601 13.1671 10.9801 14.3259 10.9801 15.534V25.5515L2.27944 30.5808C1.76028 30.8794 1.30524 31.2777 0.940471 31.7527C0.575698 32.2278 0.308381 32.7702 0.153877 33.3489C-0.000626767 33.9275 -0.0392716 34.531 0.0401628 35.1247C0.119597 35.7183 0.315544 36.2904 0.616748 36.8081L5.64583 45.4999L0.616748 54.1918C0.0153936 55.2385 -0.147764 56.4805 0.162848 57.6471C0.473459 58.8136 1.23265 59.81 2.27489 60.4191L10.9756 65.4483V75.4658C10.9756 76.674 11.4555 77.8327 12.3098 78.687C13.1641 79.5414 14.3227 80.0213 15.5309 80.0213H25.5526L30.5817 88.7223C30.985 89.4117 31.5608 89.9843 32.2525 90.3836C32.9442 90.783 33.7279 90.9954 34.5266 91C35.3192 91 36.1073 90.7905 36.8088 90.385L45.5004 85.3558L54.2011 90.385C55.2471 90.9882 56.4896 91.1519 57.6561 90.8402C58.8226 90.5285 59.8179 89.7668 60.4236 88.7223L65.4482 80.0213H75.4653C76.6735 80.0213 77.8321 79.5414 78.6864 78.687C79.5407 77.8327 80.0207 76.674 80.0207 75.4658V65.4483L88.7213 60.4191C89.2396 60.1196 89.6938 59.7209 90.0578 59.2458C90.4219 58.7706 90.6888 58.2284 90.8432 57.65C90.9977 57.0717 91.0366 56.4686 90.9578 55.8752C90.879 55.2818 90.684 54.7098 90.384 54.1918L85.3595 45.4999ZM34.1121 22.677C35.9249 22.6776 37.6632 23.3984 38.9447 24.6807C40.2261 25.963 40.9457 27.7019 40.9451 29.5148C40.9445 31.3277 40.2237 33.0661 38.9414 34.3475C37.6592 35.629 35.9203 36.3486 34.1075 36.348C32.2947 36.3474 30.5563 35.6266 29.2749 34.3443C27.9935 33.062 27.2739 31.3231 27.2745 29.5102C27.2751 27.6973 27.9958 25.959 29.2781 24.6775C30.5604 23.396 32.2992 22.6764 34.1121 22.677ZM35.4787 66.4096L28.1901 60.9475L55.5221 24.5038L62.8106 29.9658L35.4787 66.4096ZM56.8887 68.2317C55.9911 68.2314 55.1023 68.0543 54.2731 67.7105C53.444 67.3668 52.6906 66.863 52.0561 66.2281C51.4216 65.5931 50.9184 64.8394 50.5751 64.01C50.2319 63.1806 50.0554 62.2916 50.0557 61.394C50.056 60.4963 50.2331 59.6075 50.5769 58.7783C50.9207 57.9491 51.4244 57.1958 52.0593 56.5612C52.6943 55.9267 53.4479 55.4235 54.2773 55.0802C55.1067 54.737 55.9956 54.5605 56.8933 54.5608C58.7061 54.5614 60.4444 55.2821 61.7259 56.5644C63.0073 57.8468 63.7269 59.5857 63.7262 61.3985C63.7256 63.2114 63.0049 64.9498 61.7226 66.2313C60.4403 67.5128 58.7015 68.2323 56.8887 68.2317Z" fill="#FBFBFB"/>
</svg>
