<svg width="19" height="18" viewBox="0 0 19 18" fill="none" xmlns="http://www.w3.org/2000/svg">
<path d="M16.9199 0C17.4504 0 17.9591 0.210714 18.3341 0.585786C18.7092 0.960859 18.9199 1.46957 18.9199 2V16C18.9199 16.5304 18.7092 17.0391 18.3341 17.4142C17.9591 17.7893 17.4504 18 16.9199 18H2.91992C2.38949 18 1.88078 17.7893 1.50571 17.4142C1.13064 17.0391 0.919922 16.5304 0.919922 16V2C0.919922 1.46957 1.13064 0.960859 1.50571 0.585786C1.88078 0.210714 2.38949 0 2.91992 0H16.9199ZM16.4199 15.5V10.2C16.4199 9.33539 16.0765 8.5062 15.4651 7.89483C14.8537 7.28346 14.0245 6.94 13.1599 6.94C12.3099 6.94 11.3199 7.46 10.8399 8.24V7.13H8.04992V15.5H10.8399V10.57C10.8399 9.8 11.4599 9.17 12.2299 9.17C12.6012 9.17 12.9573 9.3175 13.2199 9.58005C13.4824 9.8426 13.6299 10.1987 13.6299 10.57V15.5H16.4199ZM4.79992 5.56C5.24549 5.56 5.6728 5.383 5.98786 5.06794C6.30292 4.75288 6.47992 4.32556 6.47992 3.88C6.47992 2.95 5.72992 2.19 4.79992 2.19C4.35171 2.19 3.92185 2.36805 3.60491 2.68499C3.28797 3.00193 3.10992 3.43178 3.10992 3.88C3.10992 4.81 3.86992 5.56 4.79992 5.56ZM6.18992 15.5V7.13H3.41992V15.5H6.18992Z" fill="#FBFBFB"/>
</svg>
