<svg width="18" height="12" viewBox="0 0 18 12" fill="none" xmlns="http://www.w3.org/2000/svg">
<path d="M16.6634 6.22387L16.7751 6.00085L16.6641 5.77748C15.9641 4.3689 14.8726 3.1837 13.5166 2.35688C12.1611 1.5304 10.5956 1.09511 9 1.1C7.40437 1.09511 5.83892 1.5304 4.48343 2.35688C3.12737 3.1837 2.03588 4.3689 1.33588 5.77748L1.22488 6.00085L1.33656 6.22387C2.77273 9.09196 5.70483 10.9 9 10.9C12.2952 10.9 15.2273 9.09196 16.6634 6.22387ZM0.54159 6C1.92883 2.77375 5.1886 0.5 9 0.5C12.8114 0.5 16.0712 2.77375 17.4584 6C16.0712 9.22625 12.8114 11.5 9 11.5C5.1886 11.5 1.92883 9.22625 0.54159 6ZM10.7959 4.22828C10.3177 3.76073 9.67152 3.5 9 3.5C8.32848 3.5 7.68227 3.76073 7.20409 4.22828C6.72552 4.69621 6.45455 5.33329 6.45455 6C6.45455 6.66671 6.72552 7.30379 7.20409 7.77172C7.68227 8.23927 8.32848 8.5 9 8.5C9.67152 8.5 10.3177 8.23927 10.7959 7.77172C11.2745 7.30379 11.5455 6.66671 11.5455 6C11.5455 5.33329 11.2745 4.69621 10.7959 4.22828ZM5.81818 6C5.81818 4.30268 7.2364 2.9 9 2.9C10.7636 2.9 12.1818 4.30268 12.1818 6C12.1818 7.69732 10.7636 9.1 9 9.1C7.2364 9.1 5.81818 7.69732 5.81818 6Z" stroke="#6A6C6F"/>
</svg>
