<svg width="8" height="8" viewBox="0 0 8 8" fill="none" xmlns="http://www.w3.org/2000/svg">
<path d="M7.495 3.10071C7.36036 2.96 7.22107 2.815 7.16857 2.6875C7.12 2.57071 7.11714 2.37714 7.11429 2.18964C7.10893 1.84107 7.10321 1.44607 6.82857 1.17143C6.55393 0.896786 6.15893 0.891071 5.81036 0.885714C5.62286 0.882857 5.42929 0.88 5.3125 0.831429C5.18536 0.778929 5.04 0.639643 4.89929 0.505C4.65286 0.268214 4.37286 0 4 0C3.62714 0 3.3475 0.268214 3.10071 0.505C2.96 0.639643 2.815 0.778929 2.6875 0.831429C2.57143 0.88 2.37714 0.882857 2.18964 0.885714C1.84107 0.891071 1.44607 0.896786 1.17143 1.17143C0.896786 1.44607 0.892857 1.84107 0.885714 2.18964C0.882857 2.37714 0.88 2.57071 0.831429 2.6875C0.778929 2.81464 0.639643 2.96 0.505 3.10071C0.268214 3.34714 0 3.62714 0 4C0 4.37286 0.268214 4.6525 0.505 4.89929C0.639643 5.04 0.778929 5.185 0.831429 5.3125C0.88 5.42929 0.882857 5.62286 0.885714 5.81036C0.891071 6.15893 0.896786 6.55393 1.17143 6.82857C1.44607 7.10321 1.84107 7.10893 2.18964 7.11429C2.37714 7.11714 2.57071 7.12 2.6875 7.16857C2.81464 7.22107 2.96 7.36036 3.10071 7.495C3.34714 7.73179 3.62714 8 4 8C4.37286 8 4.6525 7.73179 4.89929 7.495C5.04 7.36036 5.185 7.22107 5.3125 7.16857C5.42929 7.12 5.62286 7.11714 5.81036 7.11429C6.15893 7.10893 6.55393 7.10321 6.82857 6.82857C7.10321 6.55393 7.10893 6.15893 7.11429 5.81036C7.11714 5.62286 7.12 5.42929 7.16857 5.3125C7.22107 5.18536 7.36036 5.04 7.495 4.89929C7.73179 4.65286 8 4.37286 8 4C8 3.62714 7.73179 3.3475 7.495 3.10071ZM5.63071 3.345L3.63071 5.345C3.60418 5.37156 3.57267 5.39264 3.53798 5.40702C3.5033 5.4214 3.46612 5.4288 3.42857 5.4288C3.39102 5.4288 3.35385 5.4214 3.31916 5.40702C3.28447 5.39264 3.25296 5.37156 3.22643 5.345L2.36929 4.48786C2.31567 4.43425 2.28556 4.36153 2.28556 4.28571C2.28556 4.2099 2.31567 4.13718 2.36929 4.08357C2.4229 4.02996 2.49561 3.99984 2.57143 3.99984C2.64725 3.99984 2.71996 4.02996 2.77357 4.08357L3.42857 4.73893L5.22643 2.94071C5.25297 2.91417 5.28449 2.89311 5.31917 2.87874C5.35386 2.86438 5.39103 2.85698 5.42857 2.85698C5.46611 2.85698 5.50329 2.86438 5.53797 2.87874C5.57265 2.89311 5.60417 2.91417 5.63071 2.94071C5.65726 2.96726 5.67832 2.99877 5.69268 3.03346C5.70705 3.06814 5.71445 3.10532 5.71445 3.14286C5.71445 3.1804 5.70705 3.21757 5.69268 3.25226C5.67832 3.28694 5.65726 3.31845 5.63071 3.345Z" fill="#3D57D9"/>
</svg>
