<svg width="9" height="9" viewBox="0 0 9 9" fill="none" xmlns="http://www.w3.org/2000/svg">
<path fill-rule="evenodd" clip-rule="evenodd" d="M4.5 0C4.58324 0 4.66306 0.0330772 4.72192 0.0919549C4.78078 0.150833 4.81384 0.230688 4.81384 0.313953V0.732558C4.81384 0.815824 4.78078 0.895679 4.72192 0.954557C4.66306 1.01343 4.58324 1.04651 4.5 1.04651C4.41677 1.04651 4.33694 1.01343 4.27808 0.954557C4.21923 0.895679 4.18616 0.815824 4.18616 0.732558V0.313953C4.18616 0.230688 4.21923 0.150833 4.27808 0.0919549C4.33694 0.0330772 4.41677 0 4.5 0ZM1.31976 1.31819C1.3786 1.25939 1.45837 1.22637 1.54154 1.22637C1.6247 1.22637 1.70447 1.25939 1.76332 1.31819L1.92777 1.48228C1.98497 1.54146 2.01664 1.62075 2.01596 1.70307C2.01529 1.78539 1.98232 1.86415 1.92415 1.92239C1.86599 1.98063 1.78729 2.01368 1.70501 2.01443C1.62272 2.01519 1.54343 1.98358 1.48421 1.92642L1.31934 1.76191C1.26057 1.70304 1.22755 1.62324 1.22755 1.54005C1.22755 1.45685 1.26098 1.37705 1.31976 1.31819ZM7.68024 1.31819C7.73902 1.37705 7.77203 1.45685 7.77203 1.54005C7.77203 1.62324 7.73902 1.70304 7.68024 1.76191L7.51621 1.92642C7.45672 1.98188 7.37803 2.01207 7.29672 2.01063C7.21542 2.0092 7.13784 1.97625 7.08034 1.91873C7.02284 1.8612 6.9899 1.7836 6.98847 1.70227C6.98703 1.62093 7.01721 1.54221 7.07265 1.4827L7.23668 1.31819C7.29553 1.25939 7.3753 1.22637 7.45846 1.22637C7.54163 1.22637 7.6214 1.25939 7.68024 1.31819ZM4.5 2.30233C3.41202 2.30233 2.50816 3.09433 2.33367 4.1333C2.32685 4.17398 2.3121 4.21292 2.29024 4.24789C2.26838 4.28287 2.23985 4.31319 2.20628 4.33714C2.17271 4.36108 2.13475 4.37818 2.09457 4.38745C2.0544 4.39672 2.01279 4.39798 1.97213 4.39116C1.93146 4.38435 1.89254 4.36958 1.85757 4.34772C1.82261 4.32585 1.7923 4.29731 1.76836 4.26373C1.74443 4.23015 1.72734 4.19217 1.71807 4.15198C1.70881 4.11179 1.70754 4.07017 1.71436 4.02949C1.82593 3.37118 2.16687 2.77365 2.67675 2.34278C3.18664 1.91191 3.83254 1.67553 4.5 1.67553C5.16746 1.67553 5.81336 1.91191 6.32325 2.34278C6.83313 2.77365 7.17407 3.37118 7.28564 4.02949C7.29246 4.07017 7.29119 4.11179 7.28193 4.15198C7.27266 4.19217 7.25557 4.23015 7.23164 4.26373C7.2077 4.29731 7.17739 4.32585 7.14243 4.34772C7.10746 4.36958 7.06854 4.38435 7.02788 4.39116C6.98721 4.39798 6.9456 4.39672 6.90543 4.38745C6.86525 4.37818 6.82729 4.36108 6.79372 4.33714C6.76015 4.31319 6.73162 4.28287 6.70976 4.24789C6.6879 4.21292 6.67315 4.17398 6.66633 4.1333C6.57955 3.62133 6.31442 3.15661 5.91791 2.82148C5.52139 2.48635 5.01909 2.30243 4.5 2.30233ZM0.0016292 4.5C0.0016292 4.41673 0.0346944 4.33688 0.0935508 4.278C0.152407 4.21912 0.232234 4.18605 0.315469 4.18605H0.733922C0.817158 4.18605 0.896984 4.21912 0.95584 4.278C1.0147 4.33688 1.04776 4.41673 1.04776 4.5C1.04776 4.58327 1.0147 4.66312 0.95584 4.722C0.896984 4.78088 0.817158 4.81395 0.733922 4.81395H0.315469C0.232234 4.81395 0.152407 4.78088 0.0935508 4.722C0.0346944 4.66312 0.0016292 4.58327 0.0016292 4.5ZM7.95224 4.5C7.95224 4.41673 7.9853 4.33688 8.04416 4.278C8.10302 4.21912 8.18284 4.18605 8.26608 4.18605H8.68453C8.76777 4.18605 8.84759 4.21912 8.90645 4.278C8.96531 4.33688 8.99837 4.41673 8.99837 4.5C8.99837 4.58327 8.96531 4.66312 8.90645 4.722C8.84759 4.78088 8.76777 4.81395 8.68453 4.81395H8.26608C8.18284 4.81395 8.10302 4.78088 8.04416 4.722C7.9853 4.66312 7.95224 4.58327 7.95224 4.5ZM1.39089 5.28112C1.67837 4.83153 2.2935 4.84619 2.59939 5.23758C3.01365 5.76795 3.59196 6.27907 4.5 6.27907C5.42436 6.27907 5.99388 5.86926 6.38513 5.34558C6.68642 4.9433 7.34172 4.87716 7.65723 5.35563C7.91918 5.75121 8.20289 6.06181 8.75651 6.192C8.79681 6.20127 8.83488 6.21842 8.86854 6.24246C8.90219 6.2665 8.93077 6.29696 8.95262 6.33208C8.97447 6.36721 8.98916 6.40631 8.99586 6.44713C9.00255 6.48795 9.00112 6.5297 8.99164 6.56997C8.98215 6.61023 8.96481 6.64823 8.94059 6.68177C8.91638 6.71531 8.88579 6.74373 8.85056 6.7654C8.81533 6.78707 8.77617 6.80156 8.73533 6.80804C8.69448 6.81452 8.65276 6.81287 8.61256 6.80316C7.83758 6.62065 7.43796 6.16144 7.13374 5.70181C7.12246 5.68426 7.1067 5.67005 7.08809 5.66063C7.06948 5.65121 7.04869 5.64693 7.02788 5.64823C7.00045 5.64907 6.97358 5.65613 6.94929 5.6689C6.925 5.68166 6.90394 5.69979 6.88769 5.72191C6.39978 6.37535 5.65493 6.90698 4.5 6.90698C3.31076 6.90698 2.57051 6.22047 2.10477 5.62395C2.09296 5.60773 2.07747 5.59453 2.05958 5.58543C2.04169 5.57634 2.0219 5.57161 2.00184 5.57163C1.98521 5.57182 1.96891 5.57631 1.95454 5.58468C1.94017 5.59304 1.9282 5.60498 1.91982 5.61935C1.61016 6.10326 1.21054 6.60935 0.387443 6.80316C0.347241 6.81287 0.305519 6.81452 0.264675 6.80804C0.223831 6.80156 0.18467 6.78707 0.149443 6.7654C0.114215 6.74373 0.083617 6.71531 0.059406 6.68177C0.035195 6.64823 0.0178489 6.61023 0.00836472 6.56997C-0.00111946 6.5297 -0.00255471 6.48795 0.00414149 6.44713C0.0108377 6.40631 0.0255333 6.36721 0.0473836 6.33208C0.0692339 6.29696 0.097808 6.2665 0.131464 6.24246C0.165119 6.21842 0.203192 6.20127 0.243495 6.192C0.829748 6.05386 1.11388 5.71479 1.39089 5.28112ZM1.39089 7.37414C1.67837 6.92456 2.2935 6.93921 2.59939 7.3306C3.01365 7.86098 3.59196 8.37209 4.5 8.37209C5.42436 8.37209 5.99388 7.96228 6.38513 7.4386C6.68642 7.03591 7.34172 6.97019 7.65723 7.44865C7.91918 7.84423 8.20289 8.15484 8.75651 8.28502C8.79681 8.2943 8.83488 8.31145 8.86854 8.33549C8.90219 8.35953 8.93077 8.38998 8.95262 8.42511C8.97447 8.46023 8.98916 8.49933 8.99586 8.54015C9.00255 8.58098 9.00112 8.62272 8.99164 8.66299C8.98215 8.70326 8.96481 8.74125 8.94059 8.77479C8.91638 8.80833 8.88579 8.83675 8.85056 8.85842C8.81533 8.88009 8.77617 8.89458 8.73533 8.90107C8.69448 8.90755 8.65276 8.90589 8.61256 8.89619C7.83758 8.71367 7.43796 8.25447 7.13374 7.79484C7.12246 7.77729 7.1067 7.76307 7.08809 7.75365C7.06948 7.74423 7.04869 7.73995 7.02788 7.74126C7.00042 7.74214 6.97352 7.74927 6.94923 7.76211C6.92494 7.77495 6.9039 7.79315 6.88769 7.81535C6.39978 8.46837 5.65493 9 4.5 9C3.31076 9 2.57051 8.31349 2.10477 7.71698C2.09296 7.70075 2.07747 7.68755 2.05958 7.67846C2.04169 7.66936 2.0219 7.66463 2.00184 7.66465C1.98521 7.66484 1.96891 7.66934 1.95454 7.6777C1.94017 7.68606 1.9282 7.69801 1.91982 7.71237C1.61016 8.19628 1.21054 8.70237 0.387443 8.89619C0.347241 8.90589 0.305519 8.90755 0.264675 8.90107C0.223831 8.89458 0.18467 8.88009 0.149443 8.85842C0.114215 8.83675 0.083617 8.80833 0.059406 8.77479C0.035195 8.74125 0.0178489 8.70326 0.00836472 8.66299C-0.00111946 8.62272 -0.00255471 8.58098 0.00414149 8.54015C0.0108377 8.49933 0.0255333 8.46023 0.0473836 8.42511C0.0692339 8.38998 0.097808 8.35953 0.131464 8.33549C0.165119 8.31145 0.203192 8.2943 0.243495 8.28502C0.829748 8.14688 1.11388 7.80781 1.39089 7.37414Z" fill="#FBFBFB"/>
</svg>
