<svg width="22" height="15" viewBox="0 0 22 15" fill="none" xmlns="http://www.w3.org/2000/svg">
<path d="M20.2691 7.71987L20.3763 7.50083L20.2697 7.28148C19.425 5.543 18.1068 4.07819 16.4667 3.05546C14.8271 2.03302 12.9323 1.49389 11 1.5C9.06774 1.49389 7.17294 2.03302 5.53331 3.05546C3.89322 4.07819 2.57503 5.543 1.73028 7.28148L1.62369 7.50083L1.73094 7.71987C3.46435 11.2602 7.00792 13.5 11 13.5C14.9921 13.5 18.5356 11.2602 20.2691 7.71987ZM0.539284 7.5C2.24223 3.39095 6.28287 0.5 11 0.5C15.7171 0.5 19.7578 3.39095 21.4607 7.5C19.7578 11.6091 15.7171 14.5 11 14.5C6.28287 14.5 2.24223 11.6091 0.539284 7.5ZM13.1213 5.37868C12.5587 4.81607 11.7956 4.5 11 4.5C10.2044 4.5 9.44129 4.81607 8.87868 5.37868C8.31607 5.94129 8 6.70435 8 7.5C8 8.29565 8.31607 9.05871 8.87868 9.62132C9.44129 10.1839 10.2044 10.5 11 10.5C11.7956 10.5 12.5587 10.1839 13.1213 9.62132C13.6839 9.05871 14 8.29565 14 7.5C14 6.70435 13.6839 5.94129 13.1213 5.37868ZM7 7.5C7 5.29614 8.79614 3.5 11 3.5C13.2039 3.5 15 5.29614 15 7.5C15 9.70386 13.2039 11.5 11 11.5C8.79614 11.5 7 9.70386 7 7.5Z" stroke="#FBFBFB"/>
</svg>
