<svg width="487" height="452" viewBox="0 0 487 452" fill="none" xmlns="http://www.w3.org/2000/svg">
<path d="M71.2743 418.033C166.307 463.322 320.377 463.322 415.396 418.033C510.428 372.744 510.428 299.308 415.396 254.019C320.364 208.73 166.293 208.73 71.2743 254.019C-23.7581 299.308 -23.7581 372.744 71.2743 418.033Z" fill="#F5F5F5"/>
<path d="M392.67 380.136C405.04 386.039 425.106 386.039 437.49 380.136C449.86 374.234 449.86 364.677 437.49 358.774C425.12 352.872 405.054 352.872 392.67 358.774C380.3 364.677 380.3 374.234 392.67 380.136Z" fill="#EBEBEB"/>
<path d="M63.9928 371.627L75.1909 365.159C75.1909 365.159 84.4307 358.36 89.0093 345.756C92.4708 336.212 92.0019 328.958 89.5058 325.318C86.4442 320.836 78.5421 321.622 78.2387 331.068C77.6181 349.658 72.1983 362.525 63.979 371.641L63.9928 371.627Z" fill="#27DEBF"/>
<path opacity="0.2" d="M63.9928 371.627L75.1909 365.159C75.1909 365.159 84.4307 358.36 89.0093 345.756C92.4708 336.212 92.0019 328.958 89.5058 325.318C86.4442 320.836 78.5421 321.622 78.2387 331.068C77.6181 349.658 72.1983 362.525 63.979 371.641L63.9928 371.627Z" fill="black"/>
<path d="M63.9925 372.317C63.7719 372.317 63.565 372.206 63.4271 372.013C63.2065 371.696 63.2892 371.269 63.6064 371.048C89.5331 353.106 84.5132 328.117 84.4581 327.869C84.3753 327.497 84.6098 327.124 84.9821 327.055C85.3545 326.973 85.7268 327.207 85.7958 327.579C85.8509 327.841 91.0914 353.699 64.3925 372.179C64.2684 372.262 64.1304 372.303 64.0063 372.303L63.9925 372.317Z" fill="white"/>
<path d="M41.5828 384.563C41.5828 384.563 37.68 381.391 38.6315 377.088C39.5693 372.786 42.093 369.696 37.7627 364.152C33.4324 358.609 32.3154 351.217 37.4042 347.204C41.3345 344.101 47.4714 348.5 49.6918 340.281C51.3053 334.295 50.7537 321.042 58.3938 316.629C66.0339 312.216 70.7641 318.864 69.5919 327.841C68.5438 335.881 67.0682 343.632 68.199 345.728C70.4331 349.851 74.2532 349.3 74.0739 356.857C73.9084 363.89 67.2612 369.71 67.2612 369.71L41.569 384.535L41.5828 384.563Z" fill="#27DEBF"/>
<path d="M54.3945 377.847C54.0498 377.847 53.7464 377.585 53.705 377.24C51.7329 360.898 56.4356 332.682 60.3246 324.297C60.4901 323.952 60.89 323.801 61.2348 323.966C61.5795 324.132 61.7312 324.532 61.5657 324.876C57.7457 333.123 53.1809 361.449 55.0703 377.074C55.1117 377.447 54.8496 377.792 54.4635 377.847C54.4359 377.847 54.4083 377.847 54.3807 377.847H54.3945Z" fill="white"/>
<path d="M54.0219 365.132C53.9254 365.132 53.8151 365.104 53.7186 365.063C48.9331 362.718 45.8992 354.416 45.7751 354.058C45.6509 353.699 45.8302 353.299 46.1888 353.175C46.5473 353.051 46.9473 353.23 47.0714 353.589C47.099 353.671 50.0364 361.725 54.3253 363.821C54.6701 363.987 54.808 364.401 54.6425 364.745C54.5184 364.994 54.284 365.132 54.0219 365.132Z" fill="white"/>
<path d="M53.9533 370.634C53.6775 370.634 53.4154 370.469 53.3189 370.207C53.181 369.848 53.3465 369.448 53.705 369.31C61.7589 366.083 66.7787 356.485 66.8339 356.388C67.0132 356.044 67.4269 355.919 67.7579 356.099C68.1026 356.278 68.2267 356.692 68.0613 357.023C67.8544 357.436 62.7518 367.173 54.2291 370.593C54.1464 370.62 54.0636 370.648 53.9671 370.648L53.9533 370.634Z" fill="white"/>
<path d="M335.465 296.454C335.465 296.454 329.438 286.703 328.859 276.085C328.28 265.466 330.611 261.066 333.81 259.798C337.009 258.529 337.244 262.432 338.899 264.735C340.554 267.038 343.891 265.728 345.118 258.543C346.346 251.358 350.883 239.194 360.247 236.877C370.59 234.312 365.046 246.448 362.44 251.178C359.847 255.909 357.82 262.363 359.53 264.114C361.24 265.866 363.901 262.625 366.439 265.631C369.514 269.258 359.957 282.304 354.469 285.476L335.451 296.454H335.465Z" fill="#27DEBF"/>
<path d="M343.726 292.344C343.726 292.344 343.698 292.344 343.684 292.344C343.298 292.33 343.008 291.999 343.036 291.613C344.553 263.369 358.33 243.814 358.482 243.621C358.702 243.304 359.13 243.235 359.447 243.456C359.75 243.676 359.833 244.104 359.613 244.421C359.475 244.614 345.932 263.866 344.429 291.682C344.415 292.054 344.112 292.33 343.739 292.33L343.726 292.344Z" fill="white"/>
<path d="M344.511 284.207C344.401 284.207 344.277 284.18 344.18 284.125C340.319 281.987 338.181 275.643 338.085 275.381C337.961 275.023 338.154 274.637 338.526 274.512C338.885 274.388 339.285 274.595 339.395 274.954C339.409 275.009 341.45 281.049 344.842 282.925C345.173 283.104 345.297 283.532 345.118 283.863C344.994 284.097 344.76 284.221 344.511 284.221V284.207Z" fill="white"/>
<path d="M345.187 280.029C344.884 280.029 344.594 279.822 344.525 279.505C344.429 279.132 344.649 278.76 345.022 278.663C354.978 276.14 358.426 270.927 358.454 270.872C358.661 270.554 359.088 270.458 359.405 270.665C359.723 270.872 359.819 271.299 359.612 271.616C359.461 271.851 355.889 277.339 345.353 280.001C345.297 280.015 345.242 280.029 345.187 280.029Z" fill="white"/>
<path d="M185.449 275.009C185.449 275.009 172.223 271.782 171.534 247.027C170.789 220.301 174.775 189.12 159.177 186.582C143.58 184.045 134.823 203.173 135.029 225.39C135.209 244.904 143.069 287.241 185.449 295.543V275.009Z" fill="#27DEBF"/>
<path opacity="0.2" d="M185.449 275.009C185.449 275.009 172.223 271.782 171.534 247.027C170.789 220.301 174.775 189.12 159.177 186.582C143.58 184.045 134.823 203.173 135.029 225.39C135.209 244.904 143.069 287.241 185.449 295.543V275.009Z" fill="black"/>
<path d="M185.448 292.992C185.448 292.992 185.366 292.992 185.324 292.992C175.781 291.255 168.031 286.014 162.252 277.395C145.124 251.84 150.516 204.124 152.295 195.795C152.378 195.422 152.737 195.188 153.109 195.257C153.481 195.34 153.716 195.698 153.647 196.071C151.895 204.317 146.545 251.454 163.411 276.623C168.968 284.911 176.429 289.958 185.586 291.627C185.959 291.696 186.207 292.054 186.138 292.427C186.083 292.758 185.793 292.992 185.462 292.992H185.448Z" fill="white"/>
<path d="M185.449 356.554C171.782 358.402 149.565 358.374 136.781 348.279C123.983 338.184 126.645 329.496 131.568 325.869C136.491 322.242 140.767 318.091 132.299 310.051C123.831 301.997 110.22 289.062 105.821 269.658C101.421 250.254 103.587 238.118 112.247 234.078C120.646 230.161 122.866 236.381 128.01 249.248C133.154 262.101 144.725 251.082 154.626 255.095C164.528 259.108 164.128 267.052 164.763 273.878C165.383 280.704 168.652 282.594 174.251 282.594C179.85 282.594 185.449 285.821 185.449 292.303V356.554Z" fill="#27DEBF"/>
<path d="M185.449 334.033C185.449 334.033 185.325 334.033 185.269 334.006C184.676 333.84 170.541 329.731 149.951 310.823C128.024 290.689 117.681 260.487 117.57 260.184C117.446 259.825 117.639 259.425 117.998 259.315C118.356 259.191 118.756 259.384 118.867 259.742C118.963 260.046 129.21 289.917 150.875 309.803C171.175 328.462 185.49 332.641 185.628 332.682C186 332.792 186.207 333.165 186.111 333.537C186.028 333.84 185.752 334.033 185.449 334.033Z" fill="white"/>
<path d="M155.674 315.636C155.399 315.636 155.137 315.471 155.026 315.195C150.599 303.818 149.593 279.505 149.551 278.484C149.537 278.098 149.827 277.781 150.213 277.767C150.572 277.767 150.917 278.043 150.93 278.429C150.93 278.677 151.965 303.542 156.309 314.699C156.447 315.057 156.267 315.457 155.923 315.595C155.84 315.623 155.757 315.636 155.674 315.636Z" fill="white"/>
<path d="M155.55 331.992C153.413 331.992 151.923 331.827 151.744 331.799C151.372 331.758 151.096 331.413 151.137 331.027C151.179 330.655 151.524 330.365 151.91 330.42C152.034 330.42 164.873 331.882 170.762 325.869C171.024 325.593 171.465 325.593 171.741 325.869C172.017 326.131 172.017 326.573 171.741 326.848C167.424 331.248 160.032 331.992 155.55 331.992Z" fill="white"/>
<path d="M145.621 70.85L144.145 62.2583L136.478 67.3058C135.705 65.8302 134.726 64.6579 133.554 63.7615L137.222 53.8322L130.382 52.3014L125.335 61.9274C123.666 62.1894 121.901 62.7548 120.081 63.6374L117.888 56.3835L109.696 62.8238L110.234 71.3741C108.579 73.222 107.062 75.2355 105.711 77.3593L98.953 77.0283L94.209 87.661L100.015 90.1433C99.4081 92.4326 99.0082 94.6943 98.8703 96.887L91.4922 103.672L92.9678 112.264L100.635 107.216C101.408 108.692 102.387 109.864 103.559 110.761L99.8908 120.69L106.731 122.221L113.957 115.174C115.626 114.912 115.226 111.767 117.047 110.885L119.225 118.139L127.417 111.698L127.21 108.333C128.865 106.485 135.126 102.417 136.478 100.307L138.174 97.5076L142.918 86.8749L140.712 82.8756L138.257 77.6627L145.635 70.8776L145.621 70.85ZM120.618 99.1901C114.344 104.127 112.427 105.203 111.282 98.6109C110.137 92.0189 113.819 81.9516 120.094 77.0145C126.369 72.0774 128.782 71.705 129.927 78.3108C131.072 84.9166 126.893 94.253 120.618 99.1901Z" fill="#E0E0E0"/>
<path d="M130.396 52.3014L139.333 57.4591L134.285 67.0713L125.335 61.9274L130.396 52.3014Z" fill="#F5F5F5"/>
<path d="M153.082 67.4023L145.414 72.4635L136.478 67.3057L144.145 62.2445L153.082 67.4023Z" fill="#F5F5F5"/>
<path d="M151.855 92.0052L146.049 89.5229L137.112 84.3651L142.918 86.8475L151.855 92.0052Z" fill="#E0E0E0"/>
<path d="M99.9043 120.662L108.841 125.82L112.509 115.891L103.573 110.733L99.9043 120.662Z" fill="#E0E0E0"/>
<path d="M128.176 123.269L119.225 118.111L117.046 110.857L125.983 116.015L128.176 123.269Z" fill="#E0E0E0"/>
<path d="M154.571 76.0078L153.096 67.4162L145.428 72.4636C144.656 70.988 143.676 69.8158 142.504 68.9194L146.173 58.99L139.332 57.4592L134.285 67.0852C132.616 67.3472 130.851 67.9126 129.031 68.7953L126.852 61.5413L118.66 67.9816L119.198 76.5319C117.543 78.3799 116.026 80.3933 114.674 82.5171L107.917 82.1861L103.173 92.8188L108.979 95.3012C108.372 97.5904 107.972 99.8521 107.834 102.045L100.456 108.83L101.932 117.422L109.599 112.374C110.372 113.85 111.351 115.022 112.523 115.918L108.855 125.848L115.695 127.379L120.742 117.753C122.411 117.491 124.176 116.925 125.997 116.043L128.176 123.296L136.367 116.856L135.829 108.306C137.484 106.458 139.001 104.444 140.353 102.321L147.11 102.652L151.854 92.019L146.048 89.5366C146.669 87.2473 147.055 84.9856 147.193 82.7929L154.571 76.0078ZM129.568 104.348C123.294 109.285 117.281 107.947 116.136 101.342C114.992 94.7357 119.17 85.3994 125.445 80.4623C131.72 75.5252 137.733 76.8629 138.877 83.4687C140.008 90.0607 135.843 99.4108 129.568 104.348Z" fill="#EBEBEB"/>
<path d="M126.838 61.5413L117.901 56.3835L109.709 62.8101L118.646 67.9678L126.838 61.5413Z" fill="#F5F5F5"/>
<path d="M109.709 62.8101L110.247 71.3604L119.184 76.5181L118.646 67.9678L109.709 62.8101Z" fill="#E0E0E0"/>
<path d="M114.66 82.5034L105.724 77.3456L98.9526 77.0146L107.903 82.1724L114.66 82.5034Z" fill="#F5F5F5"/>
<path d="M98.953 77.0146L94.209 87.6473L103.159 92.8051L107.903 82.1724L98.953 77.0146Z" fill="#E0E0E0"/>
<path d="M107.82 102.017L98.8697 96.8596L91.5054 103.645L100.442 108.802L107.82 102.017Z" fill="#F5F5F5"/>
<path d="M101.917 117.394L92.981 112.236L91.5054 103.645L100.442 108.802L101.917 117.394Z" fill="#E0E0E0"/>
<path d="M139.332 57.4592L130.396 52.3014L137.222 53.8322L146.172 58.9899L139.332 57.4592Z" fill="#F5F5F5"/>
<path d="M105.559 31.8498V19.0105L95.3399 23.6167C94.7193 21.2447 93.7815 19.2174 92.5817 17.5349L99.022 4.54401L91.1613 0.00683594L83.135 12.0738C81.0802 11.8669 78.8461 12.0738 76.4879 12.7219L75.3708 1.5652L64.2554 7.9917L63.1384 20.4448C60.7801 22.5134 58.546 24.8854 56.4912 27.4643L48.465 24.6648L40.6042 38.2901L47.0445 43.834C45.8447 46.9093 44.8932 50.026 44.2864 53.1014L34.0674 60.3002V73.1394L44.2864 68.5333C44.9069 70.9053 45.8447 72.9325 47.0445 74.615L40.6042 87.5921L48.465 92.1293L56.4912 80.0624C58.546 80.2692 60.7801 80.0624 63.1384 79.4142L64.2554 90.571L75.3708 84.1444L76.4879 71.6914C79.7976 70.5881 83.3419 68.023 85.4105 65.4441L91.1613 67.4714L99.022 53.8461L94.1952 49.6813C95.395 46.6059 95.5329 41.7102 95.3399 39.021L105.559 31.8222V31.8498ZM69.7993 63.9134C61.2628 68.8367 55.9672 65.3476 55.9672 55.4872C55.9672 45.6268 63.0143 33.5598 71.5508 28.6365C80.0873 23.7132 85.245 27.2988 85.245 37.1454C85.245 46.9921 78.322 58.9763 69.7993 63.8996V63.9134Z" fill="#E0E0E0"/>
<path d="M100.097 5.16459L91.1464 0.00683594L83.1201 12.0738L92.0703 17.2315L100.097 5.16459Z" fill="#F5F5F5"/>
<path d="M114.495 24.1683L105.558 19.0105L95.3394 23.6166L104.276 28.7744L114.495 24.1683Z" fill="#F5F5F5"/>
<path d="M73.1776 95.7286L64.2412 90.5708L63.1104 79.4279L72.0606 84.5856L73.1776 95.7286Z" fill="#E0E0E0"/>
<path d="M40.5762 87.6058L49.5264 92.7636L55.9529 79.7726L47.0165 74.6149L40.5762 87.6058Z" fill="#E0E0E0"/>
<path d="M114.495 37.0075V24.1683L104.276 28.7744C103.655 26.4024 102.718 24.3751 101.518 22.6926L107.958 9.70172L100.097 5.16455L92.0711 17.2315C90.0162 17.0246 87.7821 17.2315 85.4239 17.8797L84.3068 6.72291L73.1915 13.1494L72.0744 25.6025C69.7162 27.6711 67.4821 30.0431 65.4272 32.622L57.401 29.8225L49.5402 43.4478L55.9806 48.9917C54.7808 52.067 53.843 55.1837 53.2224 58.2591L43.0034 65.4579V78.2971L53.2224 73.691C53.843 76.063 54.7808 78.0903 55.9806 79.7727L49.5402 92.7499L57.401 97.287L65.4272 85.2201C67.4821 85.427 69.7162 85.2201 72.0744 84.5719L73.1915 95.7287L84.3068 89.3022L85.4239 76.8491C87.7821 74.7805 90.0162 72.4084 92.0711 69.8296L100.097 72.6291L107.958 59.0038L101.518 53.4599C102.718 50.3845 103.669 47.2678 104.276 44.1925L114.495 36.9937V37.0075ZM78.7354 69.0711C70.1989 73.9944 63.2897 70.0088 63.2897 60.1484C63.2897 50.288 70.2126 38.3176 78.7354 33.3943C87.2719 28.471 94.181 32.4565 94.181 42.3169C94.181 52.1774 87.2581 64.1478 78.7354 69.0711Z" fill="#EBEBEB"/>
<path d="M56.4633 27.4642L65.4135 32.622L57.3872 29.8224L48.437 24.6647L56.4633 27.4642Z" fill="#F0F0F0"/>
<path d="M48.443 24.6699L40.5801 38.2998L49.5273 43.4613L57.3902 29.8314L48.443 24.6699Z" fill="#F5F5F5"/>
<path d="M40.5762 38.29L49.5264 43.4478L55.9529 48.9917L47.0165 43.8339L40.5762 38.29Z" fill="#E0E0E0"/>
<path d="M44.2585 53.1012L53.195 58.259L42.976 65.4577L34.0396 60.3L44.2585 53.1012Z" fill="#F5F5F5"/>
<path d="M34.0396 60.3L42.976 65.4578V78.297L34.0396 73.1393V60.3Z" fill="#E0E0E0"/>
<path d="M84.3068 6.72282L75.3566 1.56506L64.2412 7.99157L73.1776 13.1493L84.3068 6.72282Z" fill="#F5F5F5"/>
<path d="M199.033 375.02L328.694 300.15C330.018 299.391 330.018 298.15 328.694 297.392L316.696 290.455C315.373 289.696 313.235 289.696 311.925 290.455L182.222 365.325C180.899 366.083 180.899 367.325 182.222 368.083L194.248 375.034C195.572 375.792 197.709 375.792 199.02 375.034L199.033 375.02Z" fill="#E0E0E0"/>
<path d="M325.123 11.136L208.218 78.6281C204.922 80.5312 202.247 85.1649 202.247 88.9712V366.263C202.247 370.069 204.922 371.613 208.218 369.71L325.123 302.218C328.419 300.315 331.094 295.681 331.094 291.875V14.5837C331.094 10.7774 328.419 9.23283 325.123 11.136Z" fill="#455A64"/>
<path d="M208.217 78.6282L325.122 11.1361C328.073 9.4398 330.514 10.4879 330.997 13.4529C330.542 9.89489 328.101 5.95073 325.122 4.24067L320.254 1.42735C316.958 -0.475782 311.607 -0.475782 308.311 1.42735L191.407 68.9195C189.752 69.871 188.262 71.5121 187.187 73.3739L203.998 83.0826C205.073 81.2071 206.576 79.5798 208.217 78.6282Z" fill="#37474F"/>
<path d="M185.449 356.554C185.449 360.36 188.124 364.994 191.42 366.897L196.288 369.71C199.267 371.434 203.915 371.586 207.211 370.193C204.397 371.255 202.246 369.669 202.246 366.263V88.9712C202.246 87.068 202.908 84.958 203.997 83.0825L187.186 73.3738C186.111 75.2493 185.435 77.3593 185.435 79.2624V356.554H185.449Z" fill="#263238"/>
<path d="M211.43 115.587L321.908 51.805C323.894 50.6604 325.494 51.5844 325.494 53.8737V259.053C325.494 261.342 323.894 264.114 321.908 265.259L211.43 329.041C209.458 330.186 207.845 329.262 207.845 326.973V121.793C207.845 119.504 209.444 116.732 211.43 115.587Z" fill="white"/>
<path d="M266.677 55.4045C265.519 56.0802 264.581 57.7075 264.581 59.0452C264.581 60.383 265.519 60.9346 266.677 60.2588C267.836 59.5831 268.773 57.9558 268.773 56.6181C268.773 55.2804 267.836 54.7287 266.677 55.4045Z" fill="#37474F"/>
<path d="M266.678 307.004C262.099 309.651 258.39 316.078 258.39 321.374C258.39 326.669 262.099 328.807 266.678 326.159C271.256 323.511 274.966 317.085 274.966 311.789C274.966 306.493 271.256 304.356 266.678 307.004Z" fill="#37474F"/>
<path d="M246.832 76.7528C244.515 78.0905 242.626 81.3451 242.626 84.0343C242.626 86.7235 244.502 87.7992 246.832 86.4615C249.149 85.1238 251.038 81.8692 251.038 79.1799C251.038 76.4907 249.163 75.4151 246.832 76.7528Z" fill="#37474F"/>
<path d="M257.106 75.8424C257.106 77.6214 258.444 78.3109 260.099 77.3594L287.735 61.4034C289.39 60.4519 290.728 58.2315 290.728 56.4387C290.728 54.6459 289.39 53.9702 287.735 54.9218L260.099 70.8777C258.444 71.8293 257.106 74.0496 257.106 75.8424Z" fill="#37474F"/>
<path d="M194.744 124.469C196.606 125.545 198.109 128.151 198.109 130.289C198.109 132.426 196.606 133.295 194.744 132.233C192.882 131.157 191.379 128.551 191.379 126.413C191.379 124.276 192.882 123.407 194.744 124.469Z" fill="#37474F"/>
<path d="M194.744 150.354C196.606 151.43 198.109 154.036 198.109 156.174C198.109 158.311 196.606 159.18 194.744 158.118C192.882 157.043 191.379 154.436 191.379 152.299C191.379 150.161 192.882 149.292 194.744 150.354Z" fill="#37474F"/>
<path d="M193.71 124.979C195.571 126.055 197.075 128.661 197.075 130.799C197.075 132.936 195.571 133.805 193.71 132.743C191.848 131.668 190.345 129.061 190.345 126.923C190.345 124.786 191.848 123.917 193.71 124.979Z" fill="#455A64"/>
<path d="M193.71 150.878C195.571 151.954 197.075 154.56 197.075 156.698C197.075 158.835 195.571 159.704 193.71 158.642C191.848 157.567 190.345 154.96 190.345 152.823C190.345 150.685 191.848 149.816 193.71 150.878Z" fill="#455A64"/>
<path d="M347.905 60.3552C347.905 58.066 346.305 57.142 344.319 58.2866L331.094 65.9267L233.841 122.069C231.855 123.214 230.255 125.986 230.255 128.275V333.454C230.255 335.744 231.855 336.668 233.841 335.523L331.121 279.353L344.305 271.74C346.277 270.596 347.891 267.824 347.891 265.535V60.3552H347.905Z" fill="white" stroke="#27DEBF" stroke-miterlimit="10"/>
<path d="M232.241 336.709C231.786 336.709 231.344 336.599 230.958 336.378C230.062 335.854 229.565 334.82 229.565 333.454V128.275C229.565 125.738 231.289 122.745 233.496 121.476L330.748 65.3339L331.438 66.5337L234.185 122.676C232.434 123.683 230.945 126.262 230.945 128.289V333.468C230.945 334.309 231.207 334.93 231.648 335.192C232.103 335.454 232.765 335.358 233.496 334.944L330.776 278.774L331.466 279.974L234.185 336.144C233.51 336.53 232.848 336.723 232.241 336.723V336.709Z" fill="#27DEBF" stroke="#27DEBF" stroke-miterlimit="10"/>
<path d="M331.479 279.96L330.79 278.76L343.974 271.148C345.725 270.127 347.215 267.562 347.215 265.535V60.3553C347.215 59.514 346.953 58.8935 346.511 58.6314C346.07 58.3694 345.394 58.4659 344.663 58.8797L331.438 66.5198L330.749 65.32L343.974 57.6799C345.146 57.0041 346.291 56.9076 347.201 57.4316C348.097 57.9557 348.594 58.99 348.594 60.3415V265.535C348.594 268.072 346.87 271.065 344.663 272.334L331.479 279.946V279.96Z" fill="#27DEBF" stroke="#27DEBF" stroke-miterlimit="10"/>
<path d="M289.087 108.044C301.458 100.9 311.497 106.693 311.497 120.98C311.497 135.267 301.471 152.644 289.087 159.787C276.717 166.931 266.677 161.139 266.677 146.851C266.677 132.564 276.703 115.188 289.087 108.044Z" fill="#27DEBF"/>
<path d="M289.088 119.284C293.101 116.967 296.355 118.842 296.355 123.476C296.355 128.11 293.101 133.75 289.088 136.067C285.074 138.384 281.82 136.508 281.82 131.875C281.82 127.241 285.074 121.6 289.088 119.284Z" fill="#27DEBF"/>
<path d="M303.251 144.01C303.251 136.398 297.9 133.309 291.308 137.115L287.185 139.501C280.593 143.307 275.242 152.574 275.242 160.187V162.242C279.048 163.511 283.861 162.821 289.088 159.801C294.466 156.698 299.389 151.664 303.251 145.789V144.024V144.01Z" fill="#27DEBF"/>
<path opacity="0.7" d="M289.088 119.284C293.101 116.967 296.356 118.842 296.356 123.476C296.356 128.11 293.101 133.75 289.088 136.067C285.075 138.384 281.82 136.508 281.82 131.875C281.82 127.241 285.075 121.6 289.088 119.284Z" fill="white"/>
<path opacity="0.7" d="M303.251 144.01C303.251 136.398 297.9 133.309 291.308 137.115L287.185 139.501C280.593 143.307 275.242 152.575 275.242 160.187V162.242C279.048 163.511 283.861 162.821 289.088 159.801C294.466 156.698 299.389 151.664 303.251 145.789V144.024V144.01Z" fill="white"/>
<path d="M245.729 191.299L274.565 174.653C275.889 173.895 276.951 174.516 276.951 176.033V176.984C276.951 178.515 275.875 180.363 274.565 181.121L245.729 197.767C244.405 198.525 243.343 197.905 243.343 196.388V195.436C243.343 193.919 244.418 192.057 245.729 191.299Z" fill="#27DEBF"/>
<path opacity="0.1" d="M245.729 191.299L274.565 174.653C275.889 173.895 276.951 174.516 276.951 176.033V176.984C276.951 178.515 275.875 180.363 274.565 181.121L245.729 197.767C244.405 198.525 243.343 197.905 243.343 196.388V195.436C243.343 193.919 244.418 192.057 245.729 191.299Z" fill="black"/>
<path d="M244.529 211.406L331.769 161.042C332.431 160.656 332.969 160.973 332.969 161.731V171.909C332.969 172.667 332.431 173.591 331.769 173.978L244.529 224.342C243.867 224.728 243.329 224.411 243.329 223.652V213.474C243.329 212.716 243.867 211.792 244.529 211.406Z" fill="#27DEBF"/>
<path opacity="0.2" d="M244.529 211.406L331.769 161.042C332.431 160.656 332.969 160.973 332.969 161.731V171.909C332.969 172.667 332.431 173.591 331.769 173.978L244.529 224.342C243.867 224.728 243.329 224.411 243.329 223.652V213.474C243.329 212.716 243.867 211.792 244.529 211.406Z" fill="white"/>
<path d="M245.729 236.588L274.565 219.942C275.889 219.184 276.951 219.804 276.951 221.321V222.273C276.951 223.79 275.875 225.652 274.565 226.41L245.729 243.056C244.405 243.814 243.343 243.194 243.343 241.677V240.725C243.343 239.208 244.418 237.346 245.729 236.588Z" fill="#27DEBF"/>
<path opacity="0.1" d="M245.729 236.588L274.565 219.942C275.889 219.184 276.951 219.804 276.951 221.321V222.273C276.951 223.79 275.875 225.652 274.565 226.41L245.729 243.056C244.405 243.814 243.343 243.194 243.343 241.677V240.725C243.343 239.208 244.418 237.346 245.729 236.588Z" fill="black"/>
<path d="M244.529 256.681L331.769 206.317C332.431 205.931 332.969 206.248 332.969 207.007V217.184C332.969 217.943 332.431 218.867 331.769 219.253L244.529 269.617C243.867 270.003 243.329 269.686 243.329 268.927V258.75C243.329 257.991 243.867 257.067 244.529 256.681Z" fill="#27DEBF"/>
<path opacity="0.2" d="M244.529 256.681L331.769 206.317C332.431 205.931 332.969 206.248 332.969 207.007V217.184C332.969 217.943 332.431 218.867 331.769 219.253L244.529 269.617C243.867 270.003 243.329 269.686 243.329 268.927V258.75C243.329 257.991 243.867 257.067 244.529 256.681Z" fill="white"/>
<path d="M279.337 262.459L313.773 242.573C315.097 241.815 316.159 242.435 316.159 243.952V254.612C316.159 256.129 315.083 257.991 313.773 258.75L279.337 278.636C278.014 279.395 276.952 278.774 276.952 277.257V266.597C276.952 265.08 278.027 263.218 279.337 262.459Z" fill="#27DEBF"/>
<path opacity="0.1" d="M279.337 262.459L313.773 242.573C315.097 241.815 316.159 242.435 316.159 243.952V254.612C316.159 256.129 315.083 257.991 313.773 258.75L279.337 278.636C278.014 279.395 276.952 278.774 276.952 277.257V266.597C276.952 265.08 278.027 263.218 279.337 262.459Z" fill="black"/>
<path d="M360.978 217.529C360.978 217.529 344.029 194.153 343.009 191.381C342.223 189.285 343.064 186.169 343.257 184.721C343.45 183.273 343.726 180.045 343.974 179.149C344.402 177.577 342.361 177.908 341.23 179.328C340.058 180.79 339.685 183.631 339.106 184.1C338.527 184.569 334.004 177.991 331.632 174.943C329.273 171.895 327.798 170.061 326.363 171.192C325.329 172.005 326.101 173.784 327.811 176.363C329.522 178.956 330.28 180.156 330.542 180.707C330.804 181.259 329.397 181.314 328.639 182.473C328.046 183.383 328.598 184.858 327.811 185.562C327.025 186.265 326.294 187.534 327.15 188.968C328.253 190.788 330.446 193.381 332.983 195.146C335.521 196.898 336.541 197.518 338.03 199.904C339.52 202.29 353.021 226.658 353.931 228.12C354.841 229.582 356.593 232.561 359.254 232.644C361.916 232.726 383.706 213.971 384.823 213.033C388.408 210.04 389.539 209.599 390.16 212.302C390.353 213.143 390.477 214.109 390.615 215.198C391.042 218.618 393.373 230.837 393.373 230.837C393.373 230.837 404.392 236.174 413.466 233.54C422.54 230.906 425.588 227.113 425.588 227.113L421.051 219.722C422.292 216.674 427.988 204.317 429.781 195.67L401.372 191.078C400.792 190.954 399.855 190.72 398.669 190.402C397.11 189.989 393.194 188.61 390.16 191.244C380.382 199.752 360.978 217.501 360.978 217.501" fill="#FFA8A7"/>
<path d="M417.299 360.87L412.21 367.945C412.21 367.945 414.569 369.324 419.602 369.517C424.153 369.696 425.408 368.193 425.574 367.835C426.346 366.18 425.146 363.201 424.815 360.65L417.299 360.87Z" fill="#37474F"/>
<path d="M412.486 364.539C412.486 364.539 406.322 364.139 402.047 363.615C397.785 363.077 394.407 365.159 395.413 366.911C396.42 368.662 398.765 370.124 402.419 371.351C405.55 372.399 409.315 373.172 412.583 374.151C415.934 375.157 418.085 376.302 419.975 375.654C422.099 374.923 422.995 374.082 422.816 372.537C422.636 370.993 421.106 366.028 421.106 366.028L412.486 364.539Z" fill="#37474F"/>
<path d="M425.574 353.754C425.574 353.754 424.802 360.181 424.747 361.56C424.692 362.939 418.472 363.38 417.3 360.857L417.107 352.996L425.588 353.741L425.574 353.754Z" fill="#F28F8F"/>
<path d="M419.313 357.712L421.534 367.462C421.534 367.462 421.74 368.648 416.665 369.407C411.59 370.165 403.619 366.745 402.268 366.056C400.916 365.366 400.751 363.987 405.743 364.263C410.735 364.539 412.501 364.552 412.501 364.552L410.887 360.236L419.327 357.726L419.313 357.712Z" fill="#FFA8A7"/>
<path d="M429.781 195.684L433.297 194.719C433.297 194.719 440.648 217.984 441.461 220.218C442.275 222.452 443.185 224.852 441.613 227.624C439.724 230.92 429.781 244.2 429.781 244.2L423.464 238.022L430.622 224.907L424.292 212.068L429.781 195.684Z" fill="#F28F8F"/>
<path d="M393.621 165.455C393.621 165.455 390.808 160.945 393.773 155.429C397.262 148.933 405.081 145.748 414.376 146.975C418.679 147.54 423.74 151.071 426.526 156.449C429.588 162.366 429.863 174.281 430.622 178.79L393.621 165.455Z" fill="#37474F"/>
<path d="M393.4 167.992C393.4 167.992 391.194 172.199 391.58 172.585C391.966 172.971 393.442 173.274 393.442 173.274L393.414 167.992H393.4Z" fill="#FFA8A7"/>
<path d="M400.116 154.698C397.717 156.27 393.579 159.125 393.4 168.585C393.221 178.294 394.586 181.411 396.02 182.542C396.986 183.3 402.654 182.914 405.081 182.349C407.508 181.783 414.5 178.322 417.024 173.067C419.989 166.889 419.382 157.842 414.983 155.208C408.777 151.512 402.157 153.374 400.116 154.698Z" fill="#FFA8A7"/>
<path d="M425.574 227.141C429.822 233.761 433.876 239.594 434.731 247.027C436.552 262.735 430.58 280.691 429.311 292.302C429.311 292.302 433.325 297.515 433.325 303.652C433.325 308.451 425.574 353.754 425.574 353.754C425.574 353.754 419.947 355.464 417.093 353.01L411.77 269.672L414.569 259.522L425.56 227.141H425.574Z" fill="#27DEBF"/>
<path opacity="0.2" d="M425.574 227.141C429.822 233.761 433.876 239.594 434.731 247.027C436.552 262.735 430.58 280.691 429.311 292.302C429.311 292.302 433.325 297.515 433.325 303.652C433.325 308.451 425.574 353.754 425.574 353.754C425.574 353.754 419.947 355.464 417.093 353.01L411.77 269.672L414.569 259.522L425.56 227.141H425.574Z" fill="black"/>
<path d="M411.783 269.658L414.583 259.508C414.583 259.508 422.347 257.632 429.767 253.481C429.767 253.481 426.898 258.708 418.651 261.563L414.362 274.609L413.99 304.452L411.77 269.644L411.783 269.658Z" fill="#27DEBF"/>
<path opacity="0.3" d="M411.783 269.658L414.583 259.508C414.583 259.508 422.347 257.632 429.767 253.481C429.767 253.481 426.898 258.708 418.651 261.563L414.362 274.609L413.99 304.452L411.77 269.644L411.783 269.658Z" fill="black"/>
<path d="M425.574 227.141C427.85 230.851 433.283 237.208 432.139 243.304C430.732 250.696 426.76 255.895 414.583 259.508L403.164 300.853C403.164 300.853 409.108 306.41 410.928 311.706C412.749 317.002 419.313 357.712 419.313 357.712C419.313 357.712 417.286 361.022 410.873 360.222C410.873 360.222 388.518 309.169 386.932 305.873C385.36 302.59 384.326 300.122 385.043 294.771C385.76 289.42 393.373 230.851 393.373 230.851L425.574 227.141Z" fill="#27DEBF"/>
<path opacity="0.2" d="M425.574 227.141C427.85 230.851 433.283 237.208 432.139 243.304C430.732 250.696 426.76 255.895 414.583 259.508L403.164 300.853C403.164 300.853 409.108 306.41 410.928 311.706C412.749 317.002 419.313 357.712 419.313 357.712C419.313 357.712 417.286 361.022 410.873 360.222C410.873 360.222 388.518 309.169 386.932 305.873C385.36 302.59 384.326 300.122 385.043 294.771C385.76 289.42 393.373 230.851 393.373 230.851L425.574 227.141Z" fill="black"/>
<path d="M429.78 195.684L401.371 191.092C400.792 190.968 399.854 190.733 398.668 190.416C398.668 190.416 397.454 208.234 390.173 212.316C390.338 213.171 390.49 214.123 390.628 215.212C391.055 218.632 393.386 230.851 393.386 230.851C393.386 230.851 404.405 236.188 413.479 233.554C422.554 230.92 425.601 227.127 425.601 227.127L421.064 219.735C422.305 216.688 428.001 204.331 429.794 195.684H429.78Z" fill="#27DEBF"/>
<path opacity="0.7" d="M429.78 195.684L401.371 191.092C400.792 190.968 399.854 190.733 398.668 190.416C398.668 190.416 397.454 208.234 390.173 212.316C390.338 213.171 390.49 214.123 390.628 215.212C391.055 218.632 393.386 230.851 393.386 230.851C393.386 230.851 404.405 236.188 413.479 233.554C422.554 230.92 425.601 227.127 425.601 227.127L421.064 219.735C422.305 216.688 428.001 204.331 429.794 195.684H429.78Z" fill="white"/>
<path d="M422.278 216.839C422.168 217.101 413.149 221.942 410.473 222.673C414.693 222.466 418.21 221.473 421.051 219.749L422.292 216.839H422.278Z" fill="#27DEBF"/>
<path d="M399.399 155.181C399.399 155.181 398.075 164.145 401.288 169.413C401.288 169.413 402.488 165.841 405.522 166.53C408.57 167.22 408.708 171.178 406.584 173.426C404.46 175.674 402.102 174.86 402.102 174.86C402.102 174.86 401.619 181.342 401.371 186.775C401.123 192.016 399.661 204.055 405.784 208.896C411.894 213.736 427.229 215.377 434.414 205.324C438.413 199.739 433.104 189.864 430.635 178.79C428.36 168.613 427.091 153.526 416.279 151.099C405.481 148.685 399.413 155.181 399.413 155.181H399.399Z" fill="#37474F"/>
<path d="M439.034 32.691L436.758 34.0011C436.937 33.1599 437.075 32.3324 437.075 31.5325C437.075 26.9126 433.834 25.0509 429.835 27.3539C428.677 28.0297 427.587 28.995 426.622 30.1121V30.0845C426.622 23.8787 422.264 21.3549 416.886 24.4579C411.507 27.5608 407.149 35.1181 407.149 41.324C407.149 41.6412 407.163 41.9446 407.191 42.2342C406.046 42.0273 404.695 42.3169 403.233 43.1582C399.233 45.4612 395.993 51.0741 395.993 55.694C395.993 56.3284 396.061 56.9076 396.172 57.4316L394.958 58.135C391.662 60.0381 388.987 63.7616 388.987 66.437C388.987 69.1124 391.662 69.7468 394.958 67.8437L439.034 42.3997C442.33 40.4966 445.005 36.773 445.005 34.0976C445.005 31.4222 442.33 30.7878 439.034 32.691Z" fill="#EBEBEB"/>
</svg>
