<svg width="52" height="47" viewBox="0 0 52 47" fill="none" xmlns="http://www.w3.org/2000/svg">
<path d="M2.23642 13.3878H2.23533C1.00079 13.3878 0 14.3886 0 15.6231V15.6242C0 16.8588 1.00079 17.8596 2.23533 17.8596H2.23642C3.47096 17.8596 4.47175 16.8588 4.47175 15.6242V15.6231C4.47175 14.3886 3.47096 13.3878 2.23642 13.3878Z" fill="url(#paint0_linear_1_1151)"/>
<path d="M16.9737 31.1246H16.9726C15.7381 31.1246 14.7373 32.1254 14.7373 33.36V33.3611C14.7373 34.5956 15.7381 35.5964 16.9726 35.5964H16.9737C18.2083 35.5964 19.2091 34.5956 19.2091 33.3611V33.36C19.2091 32.1254 18.2083 31.1246 16.9737 31.1246Z" fill="url(#paint1_linear_1_1151)"/>
<path d="M11.5372 21.757H8.85349C7.61896 21.757 6.61816 22.7577 6.61816 23.9923V26.676C6.61816 27.9105 7.61896 28.9113 8.85349 28.9113H11.5372C12.7717 28.9113 13.7725 27.9105 13.7725 26.676V23.9923C13.7725 22.7577 12.7717 21.757 11.5372 21.757Z" fill="url(#paint2_linear_1_1151)"/>
<path d="M22.9364 17.3729H31.1147C32.3492 17.3729 33.3501 18.3738 33.3501 19.6082V27.3896C33.3501 28.6241 32.3492 29.625 31.1147 29.625H23.3333C22.0989 29.625 21.098 28.6241 21.098 27.3896V19.0831C21.098 18.4757 20.8513 17.8947 20.4139 17.4737L16.2754 13.4821C15.8588 13.0798 15.3019 12.8562 14.7231 12.8562H9.72947C8.49505 12.8562 7.49414 11.8553 7.49414 10.6208V6.06028C7.49414 4.82586 8.49505 3.82495 9.72947 3.82495H14.29C15.5244 3.82495 16.5253 4.82586 16.5253 6.06028V11.1109C16.5253 11.7182 16.772 12.2992 17.2094 12.7202L21.3841 16.7458C21.8007 17.1481 22.3576 17.3718 22.9364 17.3718V17.3729Z" fill="url(#paint3_linear_1_1151)"/>
<path d="M21.0981 2.23533C21.0981 1.00091 22.0991 0 23.3335 0H28.3424C34.8094 0 40.6855 2.64205 44.9424 6.90003C49.1993 11.1569 51.8424 17.033 51.8424 23.5C51.8424 29.967 49.2004 35.8431 44.9424 40.1C40.6855 44.3569 34.8094 47 28.3424 47H23.3335C22.0991 47 21.0981 45.9991 21.0981 44.7647V40.7852C21.0981 39.5507 22.0991 38.5498 23.3335 38.5498H28.3424C32.4765 38.5498 36.2379 36.855 38.9665 34.1263C41.6963 31.3966 43.39 27.6352 43.39 23.5022C43.39 19.3692 41.6952 15.6067 38.9665 12.8781C36.2368 10.1483 32.4754 8.45456 28.3424 8.45456H23.3335C22.0991 8.45456 21.0981 7.45365 21.0981 6.21923V2.23533Z" fill="url(#paint4_linear_1_1151)"/>
<defs>
<linearGradient id="paint0_linear_1_1151" x1="0" y1="15.6242" x2="4.47175" y2="15.6242" gradientUnits="userSpaceOnUse">
<stop stop-color="#4C4EF8"/>
<stop offset="0.52" stop-color="#4A50F8"/>
<stop offset="1" stop-color="#15B0F8"/>
</linearGradient>
<linearGradient id="paint1_linear_1_1151" x1="14.7373" y1="33.3611" x2="19.2091" y2="33.3611" gradientUnits="userSpaceOnUse">
<stop stop-color="#4C4EF8"/>
<stop offset="0.52" stop-color="#4A50F8"/>
<stop offset="1" stop-color="#15B0F8"/>
</linearGradient>
<linearGradient id="paint2_linear_1_1151" x1="6.61816" y1="25.3341" x2="13.7736" y2="25.3341" gradientUnits="userSpaceOnUse">
<stop stop-color="#4C4EF8"/>
<stop offset="0.52" stop-color="#4A50F8"/>
<stop offset="1" stop-color="#15B0F8"/>
</linearGradient>
<linearGradient id="paint3_linear_1_1151" x1="7.49414" y1="16.725" x2="33.3512" y2="16.725" gradientUnits="userSpaceOnUse">
<stop stop-color="#4C4EF8"/>
<stop offset="0.52" stop-color="#4A50F8"/>
<stop offset="1" stop-color="#15B0F8"/>
</linearGradient>
<linearGradient id="paint4_linear_1_1151" x1="21.0981" y1="23.4989" x2="51.8413" y2="23.4989" gradientUnits="userSpaceOnUse">
<stop stop-color="#4C4EF8"/>
<stop offset="0.52" stop-color="#4A50F8"/>
<stop offset="1" stop-color="#15B0F8"/>
</linearGradient>
</defs>
</svg>
