<svg width="52" height="45" viewBox="0 0 52 45" fill="none" xmlns="http://www.w3.org/2000/svg">
<g id="Group 502">
<path id="Vector" d="M2.23642 12.7939H2.23533C1.00079 12.7939 0 13.7452 0 14.9186V14.9197C0 16.0931 1.00079 17.0443 2.23533 17.0443H2.23642C3.47096 17.0443 4.47175 16.0931 4.47175 14.9197V14.9186C4.47175 13.7452 3.47096 12.7939 2.23642 12.7939Z" fill="url(#paint0_linear_878_151)"/>
<path id="Vector_2" d="M16.9747 29.6533H16.9736C15.7391 29.6533 14.7383 30.6046 14.7383 31.778V31.779C14.7383 32.9525 15.7391 33.9037 16.9736 33.9037H16.9747C18.2092 33.9037 19.21 32.9525 19.21 31.779V31.778C19.21 30.6046 18.2092 29.6533 16.9747 29.6533Z" fill="url(#paint1_linear_878_151)"/>
<path id="Vector_3" d="M11.5382 20.749H8.85447C7.61993 20.749 6.61914 21.7003 6.61914 22.8737V25.4245C6.61914 26.598 7.61993 27.5492 8.85447 27.5492H11.5382C12.7727 27.5492 13.7735 26.598 13.7735 25.4245V22.8737C13.7735 21.7003 12.7727 20.749 11.5382 20.749Z" fill="url(#paint2_linear_878_151)"/>
<path id="Vector_4" d="M22.9364 16.5823H31.1147C32.3491 16.5823 33.3501 17.5337 33.3501 18.707V26.1032C33.3501 27.2765 32.3491 28.2279 31.1147 28.2279H23.3333C22.0989 28.2279 21.098 27.2765 21.098 26.1032V18.2078C21.098 17.6306 20.8513 17.0783 20.4139 16.6782L16.2754 12.8842C15.8588 12.5018 15.3019 12.2892 14.7231 12.2892H9.72947C8.49505 12.2892 7.49414 11.3378 7.49414 10.1645V5.82975C7.49414 4.65644 8.49505 3.70508 9.72947 3.70508H14.29C15.5244 3.70508 16.5253 4.65644 16.5253 5.82975V10.6303C16.5253 11.2076 16.772 11.7599 17.2094 12.16L21.3841 15.9863C21.8007 16.3687 22.3576 16.5813 22.9364 16.5813V16.5823Z" fill="url(#paint3_linear_878_151)"/>
<path id="Vector_5" d="M21.0977 2.194C21.0977 1.0207 22.0986 0.0693359 23.333 0.0693359H28.3419C34.8089 0.0693359 40.685 2.58059 44.9419 6.62778C49.1988 10.6739 51.8419 16.2591 51.8419 22.406C51.8419 28.5528 49.1999 34.138 44.9419 38.1842C40.685 42.2303 34.8089 44.7426 28.3419 44.7426H23.333C22.0986 44.7426 21.0977 43.7912 21.0977 42.6179V38.8354C21.0977 37.6621 22.0986 36.7108 23.333 36.7108H28.3419C32.476 36.7108 36.2374 35.0998 38.966 32.5062C41.6958 29.9116 43.3895 26.3365 43.3895 22.4081C43.3895 18.4797 41.6947 14.9035 38.966 12.3099C36.2363 9.71527 32.4749 8.10536 28.3419 8.10536H23.333C22.0986 8.10536 21.0977 7.154 21.0977 5.98069V2.194Z" fill="url(#paint4_linear_878_151)"/>
</g>
<defs>
<linearGradient id="paint0_linear_878_151" x1="0" y1="14.9197" x2="4.47175" y2="14.9197" gradientUnits="userSpaceOnUse">
<stop stop-color="#4C4EF8"/>
<stop offset="0.52" stop-color="#4A50F8"/>
<stop offset="1" stop-color="#15B0F8"/>
</linearGradient>
<linearGradient id="paint1_linear_878_151" x1="14.7383" y1="31.779" x2="19.21" y2="31.779" gradientUnits="userSpaceOnUse">
<stop stop-color="#4C4EF8"/>
<stop offset="0.52" stop-color="#4A50F8"/>
<stop offset="1" stop-color="#15B0F8"/>
</linearGradient>
<linearGradient id="paint2_linear_878_151" x1="6.61914" y1="24.1491" x2="13.7746" y2="24.1491" gradientUnits="userSpaceOnUse">
<stop stop-color="#4C4EF8"/>
<stop offset="0.52" stop-color="#4A50F8"/>
<stop offset="1" stop-color="#15B0F8"/>
</linearGradient>
<linearGradient id="paint3_linear_878_151" x1="7.49414" y1="15.9665" x2="33.3512" y2="15.9665" gradientUnits="userSpaceOnUse">
<stop stop-color="#4C4EF8"/>
<stop offset="0.52" stop-color="#4A50F8"/>
<stop offset="1" stop-color="#15B0F8"/>
</linearGradient>
<linearGradient id="paint4_linear_878_151" x1="21.0977" y1="22.4049" x2="51.8408" y2="22.4049" gradientUnits="userSpaceOnUse">
<stop stop-color="#4C4EF8"/>
<stop offset="0.52" stop-color="#4A50F8"/>
<stop offset="1" stop-color="#15B0F8"/>
</linearGradient>
</defs>
</svg>
