<svg width="38" height="34" viewBox="0 0 38 34" fill="none" xmlns="http://www.w3.org/2000/svg">
<g id="Vector" style="mix-blend-mode:luminosity" opacity="0.2">
<path d="M26 19.8333C26.8667 19.8333 27.5833 19.5657 28.15 19.0306C28.7167 18.4954 29 17.8185 29 17C29 16.1815 28.7167 15.5046 28.15 14.9694C27.5833 14.4343 26.8667 14.1667 26 14.1667C25.1333 14.1667 24.4167 14.4343 23.85 14.9694C23.2833 15.5046 23 16.1815 23 17C23 17.8185 23.2833 18.4954 23.85 19.0306C24.4167 19.5657 25.1333 19.8333 26 19.8333ZM4 34C2.9 34 1.958 33.6298 1.174 32.8893C0.390003 32.1489 -0.00132994 31.2598 3.39559e-06 30.2222V3.77778C3.39559e-06 2.73889 0.392003 1.84922 1.176 1.10878C1.96 0.368336 2.90134 -0.00125605 4 3.20694e-06H32C33.1 3.20694e-06 34.042 0.370225 34.826 1.11067C35.61 1.85111 36.0013 2.74015 36 3.77778V8.5H32V3.77778H4V30.2222H32V25.5H36V30.2222C36 31.2611 35.608 32.1508 34.824 32.8912C34.04 33.6317 33.0987 34.0013 32 34H4ZM20 26.4444C18.9 26.4444 17.958 26.0742 17.174 25.3338C16.39 24.5933 15.9987 23.7043 16 22.6667V11.3333C16 10.2944 16.392 9.40478 17.176 8.66434C17.96 7.92389 18.9013 7.5543 20 7.55556H34C35.1 7.55556 36.042 7.92578 36.826 8.66622C37.61 9.40667 38.0013 10.2957 38 11.3333V22.6667C38 23.7056 37.608 24.5952 36.824 25.3357C36.04 26.0761 35.0987 26.4457 34 26.4444H20ZM34 22.6667V11.3333H20V22.6667H34Z" fill="#FBFBFB"/>
</g>
</svg>
