<svg width="14" height="14" viewBox="0 0 14 14" fill="none" xmlns="http://www.w3.org/2000/svg">
<path d="M13.326 9.41215L10.0283 7.93444L10.0192 7.93023C9.84798 7.85701 9.66122 7.82763 9.47581 7.84474C9.2904 7.86185 9.11218 7.92492 8.95727 8.02824C8.93903 8.04028 8.9215 8.05337 8.90477 8.06744L7.20096 9.51995C6.12155 8.99565 5.00714 7.88963 4.48284 6.82422L5.93745 5.09451C5.95145 5.07701 5.96475 5.05951 5.97735 5.04061C6.07845 4.88612 6.13979 4.70903 6.15591 4.5251C6.17203 4.34118 6.14243 4.15612 6.06975 3.9864V3.978L4.58784 0.674665C4.49176 0.452948 4.32654 0.268251 4.11687 0.148147C3.90719 0.028042 3.66429 -0.0210292 3.42443 0.00825843C2.4759 0.133074 1.60524 0.598902 0.975067 1.31874C0.34489 2.03857 -0.00170866 2.96319 6.33409e-06 3.9199C6.33409e-06 9.47795 4.52204 14 10.0801 14C11.0368 14.0017 11.9614 13.6551 12.6812 13.0249C13.4011 12.3948 13.8669 11.5241 13.9917 10.5756C14.021 10.3358 13.9721 10.0929 13.8521 9.88328C13.7321 9.67361 13.5476 9.50835 13.326 9.41215ZM10.0801 12.88C7.70452 12.8774 5.427 11.9325 3.74722 10.2528C2.06745 8.57299 1.12261 6.29546 1.12001 3.9199C1.11738 3.23633 1.36365 2.57518 1.81283 2.05991C2.26202 1.54465 2.8834 1.2105 3.56093 1.11987C3.56066 1.12266 3.56066 1.12548 3.56093 1.12827L5.03094 4.4183L3.58403 6.15012C3.56935 6.16702 3.55601 6.18504 3.54413 6.20402C3.43879 6.36566 3.37699 6.55178 3.36473 6.74433C3.35247 6.93687 3.39015 7.12933 3.47413 7.30303C4.10834 8.60014 5.41525 9.89725 6.72635 10.5308C6.90133 10.614 7.0949 10.6503 7.28814 10.6363C7.48138 10.6224 7.66769 10.5585 7.82886 10.451C7.84683 10.4389 7.86413 10.4258 7.88066 10.4118L9.58237 8.95995L12.8724 10.4335H12.8801C12.7906 11.112 12.4569 11.7346 11.9416 12.1849C11.4262 12.6352 10.7644 12.8823 10.0801 12.88Z" fill="#FBFBFB"/>
</svg>
