<svg width="199" height="199" viewBox="0 0 199 199" fill="none" xmlns="http://www.w3.org/2000/svg">
<g id="Group 433">
<path id="Vector" d="M9.95605 9.9541V75.0781H26.237V91.3591H42.518V75.0781H75.08V9.9541H9.95605ZM75.08 75.0781V91.3591H91.361V107.64H58.799V123.921H9.95605V189.045H75.08V123.921H123.923V107.64H107.642V91.3591H140.204V75.0781H156.485V91.3591H172.766V75.0781H189.047V9.9541H123.923V75.0781H75.08ZM172.766 91.3591V107.64H189.047V91.3591H172.766ZM172.766 107.64H156.485V123.921H172.766V107.64ZM172.766 123.921V140.202H189.047V123.921H172.766ZM172.766 140.202H156.485V123.921H140.204V140.202H99.5015V189.045H115.783V156.483H148.344V172.764H164.625V156.483H172.766V140.202ZM148.344 172.764H132.063V189.045H148.344V172.764ZM156.485 107.64V91.3591H140.204V107.64H156.485ZM58.799 107.64V91.3591H42.518V107.64H58.799ZM26.237 91.3591H9.95605V107.64H26.237V91.3591ZM91.361 9.9541V42.5161H83.2205V58.7971H91.361V66.9376H107.642V42.5161H115.783V26.2351H107.642V9.9541H91.361ZM26.237 26.2351H58.799V58.7971H26.237V26.2351ZM140.204 26.2351H172.766V58.7971H140.204V26.2351ZM34.3775 34.3756V50.6566H50.6585V34.3756H34.3775ZM148.344 34.3756V50.6566H164.625V34.3756H148.344ZM26.237 140.202H58.799V172.764H26.237V140.202ZM34.3775 148.343V164.624H50.6585V148.343H34.3775ZM172.766 172.764V189.045H189.047V172.764H172.766Z" fill="#222222"/>
<g id="Group 432">
<g id="Group 429">
<path id="Vector 40" d="M36.8182 198H1" stroke="#6A6AFE" stroke-width="2" stroke-linecap="round"/>
<path id="Vector 41" d="M0.999998 162.182L1 198" stroke="#6A6AFE" stroke-width="2" stroke-linecap="round"/>
</g>
<g id="Group 428">
<path id="Vector 40_2" d="M1 36.8182V1" stroke="#6A6AFE" stroke-width="2" stroke-linecap="round"/>
<path id="Vector 41_2" d="M36.8182 0.999998L1 1" stroke="#6A6AFE" stroke-width="2" stroke-linecap="round"/>
</g>
<g id="Group 430">
<path id="Vector 40_3" d="M198 162.182V198" stroke="#6A6AFE" stroke-width="2" stroke-linecap="round"/>
<path id="Vector 41_3" d="M162.182 198L198 198" stroke="#6A6AFE" stroke-width="2" stroke-linecap="round"/>
</g>
<g id="Group 431">
<path id="Vector 40_4" d="M162.182 1L198 1" stroke="#6A6AFE" stroke-width="2" stroke-linecap="round"/>
<path id="Vector 41_4" d="M198 36.8182L198 1" stroke="#6A6AFE" stroke-width="2" stroke-linecap="round"/>
</g>
</g>
</g>
</svg>
