<svg width="32" height="40" viewBox="0 0 32 40" fill="none" xmlns="http://www.w3.org/2000/svg">
<path d="M13.9 27.1L25.2 15.8L22.35 12.95L13.9 21.4L9.7 17.2L6.85 20.05L13.9 27.1ZM16 40C11.3667 38.8333 7.542 36.1747 4.526 32.024C1.51 27.8733 0.00133333 23.2653 0 18.2V6L16 0L32 6V18.2C32 23.2667 30.4913 27.8753 27.474 32.026C24.4567 36.1767 20.632 38.8347 16 40ZM16 35.8C19.4667 34.7 22.3333 32.5 24.6 29.2C26.8667 25.9 28 22.2333 28 18.2V8.75L16 4.25L4 8.75V18.2C4 22.2333 5.13333 25.9 7.4 29.2C9.66667 32.5 12.5333 34.7 16 35.8Z" fill="#FBFBFB"/>
</svg>
