<svg width="25" height="17" viewBox="0 0 25 17" fill="none" xmlns="http://www.w3.org/2000/svg">
<path d="M10.5199 12.1429L16.7479 8.5L10.5199 4.85714V12.1429ZM24.3919 2.635C24.5479 3.20571 24.6559 3.97071 24.7279 4.94214C24.8119 5.91357 24.8479 6.75143 24.8479 7.48L24.9199 8.5C24.9199 11.1593 24.7279 13.1143 24.3919 14.365C24.0919 15.4579 23.3959 16.1621 22.3159 16.4657C21.7519 16.6236 20.7199 16.7329 19.1359 16.8057C17.5759 16.8907 16.1479 16.9271 14.8279 16.9271L12.9199 17C7.89192 17 4.75992 16.8057 3.52392 16.4657C2.44392 16.1621 1.74792 15.4579 1.44792 14.365C1.29192 13.7943 1.18392 13.0293 1.11192 12.0579C1.02792 11.0864 0.991922 10.2486 0.991922 9.52L0.919922 8.5C0.919922 5.84071 1.11192 3.88571 1.44792 2.635C1.74792 1.54214 2.44392 0.837857 3.52392 0.534286C4.08792 0.376429 5.11992 0.267143 6.70392 0.194286C8.26392 0.109286 9.69192 0.0728571 11.0119 0.0728571L12.9199 0C17.9479 0 21.0799 0.194286 22.3159 0.534286C23.3959 0.837857 24.0919 1.54214 24.3919 2.635Z" fill="#FBFBFB"/>
</svg>
