<svg width="11" height="10" viewBox="0 0 11 10" fill="none" xmlns="http://www.w3.org/2000/svg">
<path d="M7.52632 5.83333C7.77719 5.83333 7.98465 5.75463 8.14868 5.59722C8.31272 5.43982 8.39474 5.24074 8.39474 5C8.39474 4.75926 8.31272 4.56019 8.14868 4.40278C7.98465 4.24537 7.77719 4.16667 7.52632 4.16667C7.27544 4.16667 7.06798 4.24537 6.90395 4.40278C6.73991 4.56019 6.65789 4.75926 6.65789 5C6.65789 5.24074 6.73991 5.43982 6.90395 5.59722C7.06798 5.75463 7.27544 5.83333 7.52632 5.83333ZM1.1579 10C0.839474 10 0.56679 9.89111 0.339843 9.67333C0.112896 9.45555 -0.000384982 9.19407 9.82933e-07 8.88889V1.11111C9.82933e-07 0.805556 0.113475 0.54389 0.340422 0.326112C0.567369 0.108334 0.83986 -0.000369427 1.1579 9.43219e-07H9.26316C9.58158 9.43219e-07 9.85426 0.10889 10.0812 0.326668C10.3082 0.544445 10.4214 0.805927 10.4211 1.11111V2.5H9.26316V1.11111H1.1579V8.88889H9.26316V7.5H10.4211V8.88889C10.4211 9.19444 10.3076 9.45611 10.0806 9.67389C9.85368 9.89167 9.58119 10.0004 9.26316 10H1.1579ZM5.78947 7.77778C5.47105 7.77778 5.19837 7.66889 4.97142 7.45111C4.74447 7.23333 4.63119 6.97185 4.63158 6.66667V3.33333C4.63158 3.02778 4.74505 2.76611 4.972 2.54833C5.19895 2.33056 5.47144 2.22185 5.78947 2.22222H9.8421C10.1605 2.22222 10.4332 2.33111 10.6602 2.54889C10.8871 2.76667 11.0004 3.02815 11 3.33333V6.66667C11 6.97222 10.8865 7.23389 10.6596 7.45167C10.4326 7.66944 10.1601 7.77815 9.8421 7.77778H5.78947ZM9.8421 6.66667V3.33333H5.78947V6.66667H9.8421Z" fill="#FBFBFB"/>
</svg>
